# xmcd
#
# Track frame offsets: 
#        150
#        21999
#        49636
#        77529
#        134428
#
# Disc length: 2353 seconds
#
# Revision: 0
# Processed by: cddbd v1.5.2PL0 Copyright (c) Steve Scherf et al.
# Submitted via: ExactAudioCopy v0.99pb4
#
DISCID=37092f05
DTITLE=Cream - London May 2-3-5-6
DYEAR=1900
DGENRE=Blues
TTITLE0=Crossroads
TTITLE1=Sitting on the top of the world
TTITLE2=White room
TTITLE3=Toad
TTITLE4=Sunshine of your love
EXTD=
EXTT0=
EXTT1=
EXTT2=
EXTT3=
EXTT4=
PLAYORDER=
